# xmcd CD database file
#
# Track frame offsets:
#	150
#	19350
#	45752
#	70025
#	83047
#	101640
#	135532
#	160667
#	172117
#	195912
#
# Disc length: 2820 seconds
#
# Revision: 0
# Processed by: cddbd v1.4PL0 Copyright (c) Steve Scherf et al.
# Submitted via: CDex 1.51
#
DISCID=730b020a
DTITLE=Carmen Lundi - Something to believe in
DYEAR=2003
DGENRE=Jazz
TTITLE0=In Love Again
TTITLE1=Something To Believe In
TTITLE2=Windmills Of Your Mind
TTITLE3=Happiness Is
TTITLE4=Wild Child
TTITLE5=I Love You Porgy
TTITLE6=Vu Ja De
TTITLE7=A Gift Of Love
TTITLE8=It Might As Well Be Spring
TTITLE9=Moody's Mood For Love
EXTD=YEAR: 2003
EXTT0=
EXTT1=
EXTT2=
EXTT3=
EXTT4=
EXTT5=
EXTT6=
EXTT7=
EXTT8=
EXTT9=
PLAYORDER=
